# xmcd CD database file
#
# Track frame offsets:
#	150
#	20617
#	40426
#	66706
#	81481
#	103178
#	117769
#	136335
#	155175
#	173746
#	195024
#	207552
#	222231
#	240874
#
# Disc length: 3403 seconds
#
# Revision: 0
# Processed by: cddbd v1.5.1PL0 Copyright (c) Steve Scherf et al.
# Submitted via: CDex 1.51
#
DISCID=cc0d490e
DTITLE=JOYCE - VIVA! JOYCE The Finest Collection
DYEAR=2004
DGENRE=Jazz
TTITLE0=Forcsas d'alma
TTITLE1=Todos os santos
TTITLE2=A banda maluca
TTITLE3=Pega leve
TTITLE4=The band on the wall
TTITLE5=Samba do joyce
TTITLE6=Azul bahia
TTITLE7=Na paz
TTITLE8=Tufao
TTITLE9=London samba
TTITLE10=Diz que eu tambem fui por ai
TTITLE11=Crianca
TTITLE12=Novelo
TTITLE13=L'etang
EXTD=YEAR: 2004
EXTT0=
EXTT1=
EXTT2=
EXTT3=
EXTT4=
EXTT5=
EXTT6=
EXTT7=
EXTT8=
EXTT9=
EXTT10=
EXTT11=
EXTT12=
EXTT13=
PLAYORDER=
